<svg width="240" height="240" viewBox="0 0 240 240" fill="none" xmlns="http://www.w3.org/2000/svg">
<g clip-path="url(#clip0_1576_385)">
<rect width="240" height="240" fill="#F0F4F5"/>
<path d="M232 208L232 232L208 232" stroke="#005EB8" stroke-width="2" stroke-linecap="round"/>
<path d="M32 232L8 232L8 208" stroke="#005EB8" stroke-width="2" stroke-linecap="round"/>
<path d="M31 181L31 55L209 55L209 181C209 183.209 207.209 185 205 185L35 185C32.7909 185 31 183.209 31 181Z" stroke="#005EB8" stroke-width="2"/>
<circle cx="69" cy="93.8" r="12.8" fill="#005EB8" stroke="#005EB8" stroke-width="2"/>
<path d="M69 112.05C75.8906 112.05 80.8216 116.381 84.2993 121.736C87.7747 127.088 89.6715 133.283 90.5036 136.568C90.6388 137.102 90.2448 137.65 89.6021 137.65H48.3979C47.7552 137.65 47.3612 137.102 47.4964 136.568C48.3285 133.283 50.2253 127.088 53.7007 121.736C57.1784 116.381 62.1094 112.05 69 112.05Z" fill="#005EB8" stroke="#005EB8" stroke-width="2"/>
<line x1="117" y1="93" x2="187" y2="93" stroke="#005EB8" stroke-width="2" stroke-linecap="round"/>
<line x1="117" y1="105" x2="187" y2="105" stroke="#005EB8" stroke-width="2" stroke-linecap="round"/>
<line x1="117" y1="117" x2="187" y2="117" stroke="#005EB8" stroke-width="2" stroke-linecap="round"/>
<line x1="47" y1="169" x2="193" y2="169" stroke="#005EB8" stroke-width="2" stroke-linecap="round"/>
<line x1="47" y1="161" x2="193" y2="161" stroke="#005EB8" stroke-width="2" stroke-linecap="round"/>
<path d="M209.095 55L30.918 55L25.4615 -8.65838C25.2613 -10.9937 27.103 -13 29.4469 -13L211.475 -13C213.842 -13 215.691 -10.9567 215.455 -8.60198L209.095 55Z" fill="#005EB8" fill-opacity="0.2" stroke="#005EB8" stroke-width="2"/>
<path d="M8 32L8 8L32 8" stroke="#005EB8" stroke-width="2" stroke-linecap="round"/>
<path d="M208 8L232 8L232 32" stroke="#005EB8" stroke-width="2" stroke-linecap="round"/>
</g>
<defs>
<clipPath id="clip0_1576_385">
<rect width="240" height="240" fill="white"/>
</clipPath>
</defs>
</svg>
