<svg width="240" height="240" viewBox="0 0 240 240" fill="none" xmlns="http://www.w3.org/2000/svg">
<rect width="240" height="240" fill="#F0F4F5"/>
<path d="M232 208L232 232L208 232" stroke="#005EB8" stroke-width="2" stroke-linecap="round"/>
<path d="M208 8L232 8L232 32" stroke="#005EB8" stroke-width="2" stroke-linecap="round"/>
<path d="M8 32L8 8L32 8" stroke="#005EB8" stroke-width="2" stroke-linecap="round"/>
<path d="M32 232L8 232L8 208" stroke="#005EB8" stroke-width="2" stroke-linecap="round"/>
<path d="M31 213L31 87L209 87L209 213C209 215.209 207.209 217 205 217L35 217C32.7909 217 31 215.209 31 213Z" stroke="#005EB8" stroke-width="2"/>
<circle cx="69" cy="125.8" r="12.8" fill="#005EB8" stroke="#005EB8" stroke-width="2"/>
<path d="M69 144.05C75.8906 144.05 80.8216 148.381 84.2993 153.736C87.7747 159.088 89.6715 165.283 90.5036 168.568C90.6388 169.102 90.2448 169.65 89.6021 169.65H48.3979C47.7552 169.65 47.3612 169.102 47.4964 168.568C48.3285 165.283 50.2253 159.088 53.7007 153.736C57.1784 148.381 62.1094 144.05 69 144.05Z" fill="#005EB8" stroke="#005EB8" stroke-width="2"/>
<line x1="117" y1="125" x2="187" y2="125" stroke="#005EB8" stroke-width="2" stroke-linecap="round"/>
<line x1="117" y1="137" x2="187" y2="137" stroke="#005EB8" stroke-width="2" stroke-linecap="round"/>
<line x1="117" y1="149" x2="187" y2="149" stroke="#005EB8" stroke-width="2" stroke-linecap="round"/>
<line x1="47" y1="201" x2="193" y2="201" stroke="#005EB8" stroke-width="2" stroke-linecap="round"/>
<line x1="47" y1="193" x2="193" y2="193" stroke="#005EB8" stroke-width="2" stroke-linecap="round"/>
<path d="M209.095 87L30.918 87L25.4615 23.3416C25.2613 21.0063 27.103 19 29.4469 19L211.475 19C213.842 19 215.691 21.0433 215.455 23.398L209.095 87Z" fill="#005EB8" fill-opacity="0.2" stroke="#005EB8" stroke-width="2"/>
</svg>
