<svg width="240" height="192" viewBox="0 0 240 192" fill="none" xmlns="http://www.w3.org/2000/svg">
<g clip-path="url(#clip0_1594_464)">
<rect width="240" height="192" fill="#F0F4F5"/>
<path d="M232 160L232 184L208 184" stroke="#005EB8" stroke-width="2" stroke-linecap="round"/>
<path d="M32 184L8 184L8 160" stroke="#005EB8" stroke-width="2" stroke-linecap="round"/>
<path d="M31 160L31 34L209 34L209 160C209 162.209 207.209 164 205 164L35 164C32.7909 164 31 162.209 31 160Z" stroke="#005EB8" stroke-width="2"/>
<circle cx="69" cy="72.8" r="12.8" fill="#005EB8" stroke="#005EB8" stroke-width="2"/>
<path d="M69 91.05C75.8906 91.05 80.8216 95.3815 84.2993 100.736C87.7747 106.088 89.6715 112.283 90.5036 115.568C90.6388 116.102 90.2448 116.65 89.6021 116.65H48.3979C47.7552 116.65 47.3612 116.102 47.4964 115.568C48.3285 112.283 50.2253 106.088 53.7007 100.736C57.1784 95.3815 62.1094 91.05 69 91.05Z" fill="#005EB8" stroke="#005EB8" stroke-width="2"/>
<line x1="117" y1="72" x2="187" y2="72" stroke="#005EB8" stroke-width="2" stroke-linecap="round"/>
<line x1="117" y1="84" x2="187" y2="84" stroke="#005EB8" stroke-width="2" stroke-linecap="round"/>
<line x1="117" y1="96" x2="187" y2="96" stroke="#005EB8" stroke-width="2" stroke-linecap="round"/>
<line x1="47" y1="148" x2="193" y2="148" stroke="#005EB8" stroke-width="2" stroke-linecap="round"/>
<line x1="47" y1="140" x2="193" y2="140" stroke="#005EB8" stroke-width="2" stroke-linecap="round"/>
<path d="M209.095 34L30.918 34L25.4615 -29.6584C25.2613 -31.9937 27.103 -34 29.4469 -34L211.475 -34C213.842 -34 215.691 -31.9567 215.455 -29.602L209.095 34Z" fill="#005EB8" fill-opacity="0.2" stroke="#005EB8" stroke-width="2"/>
<path d="M8 32L8 8L32 8" stroke="#005EB8" stroke-width="2" stroke-linecap="round"/>
<path d="M208 8L232 8L232 32" stroke="#005EB8" stroke-width="2" stroke-linecap="round"/>
</g>
<defs>
<clipPath id="clip0_1594_464">
<rect width="240" height="192" fill="white"/>
</clipPath>
</defs>
</svg>
