<svg width="960" height="720" viewBox="0 0 960 720" fill="none" xmlns="http://www.w3.org/2000/svg">
<rect width="960" height="720" fill="white"/>
<rect width="960" height="720" fill="#D8DDE0"/>
<path d="M260.312 372H267.032V338.496H260.312V372ZM273.575 372H280.007V360C280.007 356.784 280.535 351.696 284.807 351.696C288.503 351.696 288.503 354.96 288.503 357.264V372H294.935V360C294.935 356.784 295.463 351.696 299.735 351.696C303.431 351.696 303.431 354.96 303.431 357.264V372H309.863V356.4C309.863 350.88 308.135 346.704 302.039 346.704C299.015 346.704 295.799 348.096 294.311 351.072C292.919 348 290.471 346.704 287.015 346.704C284.615 346.704 281.687 347.712 279.671 350.736H279.575V347.28H273.575V372ZM317.624 354.096C319.784 352.464 322.52 351.408 325.256 351.408C329.048 351.408 330.824 352.752 330.824 356.736H327.272C324.584 356.736 321.416 356.976 318.968 358.176C316.52 359.376 314.744 361.536 314.744 365.232C314.744 369.936 319.016 372.576 323.384 372.576C326.312 372.576 329.528 371.04 331.016 368.304H331.112C331.16 369.072 331.16 370.704 331.4 372H337.064C336.92 370.08 336.824 368.352 336.776 366.48C336.728 364.656 336.68 362.784 336.68 360.288V357.12C336.68 349.824 333.56 346.704 326.024 346.704C323.288 346.704 319.928 347.424 317.432 348.576L317.624 354.096ZM320.888 364.848C320.888 361.056 325.16 360.576 328.04 360.576H330.824C330.824 362.496 330.536 364.272 329.48 365.664C328.472 367.008 326.936 367.872 324.968 367.872C322.664 367.872 320.888 366.96 320.888 364.848ZM353.608 367.008C349.912 367.008 348.136 362.88 348.136 359.52C348.136 355.728 349.528 351.696 353.896 351.696C357.64 351.696 359.272 355.152 359.272 359.376C359.272 363.504 357.64 367.008 353.608 367.008ZM359.56 347.28V350.64H359.464C357.688 347.808 355.144 346.704 351.88 346.704C344.488 346.704 341.416 353.568 341.416 359.52C341.416 366.144 344.2 372 351.496 372C355.096 372 357.976 370.176 359.176 368.064H359.272C359.272 372.336 358.936 377.664 351.832 377.664C349.816 377.664 346.6 376.56 344.632 375.504L344.104 380.976C347.176 382.272 350.104 382.656 352.648 382.656C363.016 382.656 365.704 376.32 365.704 369.6V347.28H359.56ZM376.903 357.216C377.191 353.904 379.015 351.408 382.615 351.408C386.215 351.408 387.655 354.096 387.847 357.216H376.903ZM392.167 365.376C389.767 366.72 387.079 367.872 383.959 367.872C379.975 367.872 377.191 365.616 376.903 361.632H393.991C393.991 352.992 391.399 346.704 382.231 346.704C374.551 346.704 370.759 352.608 370.759 359.76C370.759 367.872 375.511 372.576 383.671 372.576C387.127 372.576 389.815 371.904 392.167 370.608V365.376ZM412.375 372H418.807V359.904C418.807 356.736 419.815 351.696 424.471 351.696C428.599 351.696 428.647 355.776 428.647 358.8V372H435.079V356.4C435.079 350.832 432.535 346.704 426.679 346.704C423.319 346.704 420.583 347.808 418.567 350.64H418.471V347.28H412.375V372ZM440.134 359.808C440.134 366.912 444.886 372.576 453.046 372.576C461.254 372.576 466.006 366.912 466.006 359.808C466.006 351.648 460.39 346.704 453.046 346.704C445.75 346.704 440.134 351.648 440.134 359.808ZM446.854 359.04C446.854 355.344 448.87 351.696 453.046 351.696C457.27 351.696 459.286 355.248 459.286 359.04C459.286 363.168 457.99 367.584 453.046 367.584C448.15 367.584 446.854 363.12 446.854 359.04ZM473.174 364.56C473.174 369.456 475.958 372.576 480.998 372.576C482.918 372.576 484.406 372.384 485.75 372L485.558 366.912C484.886 367.344 483.782 367.584 482.63 367.584C480.182 367.584 479.606 365.616 479.606 363.504V351.984H485.318V347.28H479.606V340.272L473.174 342.336V347.28H468.422V351.984H473.174V364.56ZM504.374 354.096C506.534 352.464 509.27 351.408 512.006 351.408C515.798 351.408 517.574 352.752 517.574 356.736H514.022C511.334 356.736 508.166 356.976 505.718 358.176C503.27 359.376 501.494 361.536 501.494 365.232C501.494 369.936 505.766 372.576 510.134 372.576C513.062 372.576 516.278 371.04 517.766 368.304H517.862C517.91 369.072 517.91 370.704 518.15 372H523.814C523.67 370.08 523.574 368.352 523.526 366.48C523.478 364.656 523.43 362.784 523.43 360.288V357.12C523.43 349.824 520.31 346.704 512.774 346.704C510.038 346.704 506.678 347.424 504.182 348.576L504.374 354.096ZM507.638 364.848C507.638 361.056 511.91 360.576 514.79 360.576H517.574C517.574 362.496 517.286 364.272 516.23 365.664C515.222 367.008 513.686 367.872 511.718 367.872C509.414 367.872 507.638 366.96 507.638 364.848ZM536.182 372H543.43L552.55 347.28H546.118L540.166 365.28H540.07L533.926 347.28H527.014L536.182 372ZM557.717 354.096C559.877 352.464 562.613 351.408 565.349 351.408C569.141 351.408 570.917 352.752 570.917 356.736H567.365C564.677 356.736 561.509 356.976 559.061 358.176C556.613 359.376 554.837 361.536 554.837 365.232C554.837 369.936 559.109 372.576 563.477 372.576C566.405 372.576 569.621 371.04 571.109 368.304H571.205C571.253 369.072 571.253 370.704 571.493 372H577.157C577.013 370.08 576.917 368.352 576.869 366.48C576.821 364.656 576.773 362.784 576.773 360.288V357.12C576.773 349.824 573.653 346.704 566.117 346.704C563.381 346.704 560.021 347.424 557.525 348.576L557.717 354.096ZM560.981 364.848C560.981 361.056 565.253 360.576 568.133 360.576H570.917C570.917 362.496 570.629 364.272 569.573 365.664C568.565 367.008 567.029 367.872 565.061 367.872C562.757 367.872 560.981 366.96 560.981 364.848ZM583.237 372H589.669V347.28H583.237V372ZM583.237 342.768H589.669V336.624H583.237V342.768ZM596.597 372H603.029V336H596.597V372ZM611.108 354.096C613.268 352.464 616.004 351.408 618.74 351.408C622.532 351.408 624.308 352.752 624.308 356.736H620.756C618.068 356.736 614.9 356.976 612.452 358.176C610.004 359.376 608.228 361.536 608.228 365.232C608.228 369.936 612.5 372.576 616.868 372.576C619.796 372.576 623.012 371.04 624.5 368.304H624.596C624.644 369.072 624.644 370.704 624.884 372H630.548C630.404 370.08 630.308 368.352 630.26 366.48C630.212 364.656 630.164 362.784 630.164 360.288V357.12C630.164 349.824 627.044 346.704 619.508 346.704C616.772 346.704 613.412 347.424 610.916 348.576L611.108 354.096ZM614.372 364.848C614.372 361.056 618.644 360.576 621.524 360.576H624.308C624.308 362.496 624.02 364.272 622.964 365.664C621.956 367.008 620.42 367.872 618.452 367.872C616.148 367.872 614.372 366.96 614.372 364.848ZM642.964 359.568C642.964 356.112 644.596 351.696 648.724 351.696C652.9 351.696 654.052 356.256 654.052 359.568C654.052 362.976 652.852 367.584 648.628 367.584C644.356 367.584 642.964 363.072 642.964 359.568ZM636.484 372H642.724V368.976H642.82C644.692 371.616 647.668 372.576 650.404 372.576C657.988 372.576 660.772 366.336 660.772 359.568C660.772 352.752 657.988 346.704 650.404 346.704C647.044 346.704 644.788 348.096 643.012 350.448H642.916V336H636.484V372ZM665.972 372H672.404V336H665.972V372ZM683.747 357.216C684.035 353.904 685.859 351.408 689.459 351.408C693.059 351.408 694.499 354.096 694.691 357.216H683.747ZM699.011 365.376C696.611 366.72 693.923 367.872 690.803 367.872C686.819 367.872 684.035 365.616 683.747 361.632H700.835C700.835 352.992 698.243 346.704 689.075 346.704C681.395 346.704 677.603 352.608 677.603 359.76C677.603 367.872 682.355 372.576 690.515 372.576C693.971 372.576 696.659 371.904 699.011 370.608V365.376Z" fill="black"/>
</svg>
