<svg width="240" height="240" viewBox="0 0 240 240" fill="none" xmlns="http://www.w3.org/2000/svg">
<rect width="240" height="240" fill="#F0F4F5"/>
<rect x="55" y="31" width="130" height="178" rx="4" stroke="#005EB8" stroke-width="2"/>
<line x1="71" y1="61" x2="101" y2="61" stroke="#005EB8" stroke-width="2" stroke-linecap="round"/>
<line x1="71" y1="73" x2="101" y2="73" stroke="#005EB8" stroke-width="2" stroke-linecap="round"/>
<line x1="71" y1="177" x2="117" y2="177" stroke="#005EB8" stroke-width="2" stroke-linecap="round"/>
<line x1="71" y1="107" x2="169" y2="107" stroke="#005EB8" stroke-width="2" stroke-linecap="round"/>
<line x1="71" y1="119" x2="169" y2="119" stroke="#005EB8" stroke-width="2" stroke-linecap="round"/>
<line x1="71" y1="131" x2="169" y2="131" stroke="#005EB8" stroke-width="2" stroke-linecap="round"/>
<line x1="71" y1="143" x2="169" y2="143" stroke="#005EB8" stroke-width="2" stroke-linecap="round"/>
<path d="M232 208L232 232L208 232" stroke="#005EB8" stroke-width="2" stroke-linecap="round"/>
<path d="M208 8L232 8L232 32" stroke="#005EB8" stroke-width="2" stroke-linecap="round"/>
<path d="M8 32L8 8L32 8" stroke="#005EB8" stroke-width="2" stroke-linecap="round"/>
<path d="M32 232L8 232L8 208" stroke="#005EB8" stroke-width="2" stroke-linecap="round"/>
</svg>
