<?xml version="1.0" standalone="no"?>
<svg xmlns="http://www.w3.org/2000/svg" width="300" height="300"><defs><clipPath id="clip-path-dot-color"><rect x="2" y="66" width="8" height="8" transform="rotate(0,6,70)"/><rect x="2" y="74" width="8" height="8" transform="rotate(0,6,78)"/><rect x="2" y="90" width="8" height="8" transform="rotate(0,6,94)"/><rect x="2" y="114" width="8" height="8" transform="rotate(0,6,118)"/><rect x="2" y="138" width="8" height="8" transform="rotate(0,6,142)"/><rect x="2" y="146" width="8" height="8" transform="rotate(0,6,150)"/><rect x="2" y="154" width="8" height="8" transform="rotate(0,6,158)"/><rect x="2" y="170" width="8" height="8" transform="rotate(0,6,174)"/><rect x="2" y="186" width="8" height="8" transform="rotate(0,6,190)"/><rect x="2" y="194" width="8" height="8" transform="rotate(0,6,198)"/><rect x="2" y="202" width="8" height="8" transform="rotate(0,6,206)"/><rect x="10" y="66" width="8" height="8" transform="rotate(0,14,70)"/><rect x="10" y="82" width="8" height="8" transform="rotate(0,14,86)"/><rect x="10" y="90" width="8" height="8" transform="rotate(0,14,94)"/><rect x="10" y="154" width="8" height="8" transform="rotate(0,14,158)"/><rect x="10" y="178" width="8" height="8" transform="rotate(0,14,182)"/><rect x="10" y="202" width="8" height="8" transform="rotate(0,14,206)"/><rect x="10" y="226" width="8" height="8" transform="rotate(0,14,230)"/><rect x="18" y="74" width="8" height="8" transform="rotate(0,22,78)"/><rect x="18" y="82" width="8" height="8" transform="rotate(0,22,86)"/><rect x="18" y="90" width="8" height="8" transform="rotate(0,22,94)"/><rect x="18" y="114" width="8" height="8" transform="rotate(0,22,118)"/><rect x="18" y="138" width="8" height="8" transform="rotate(0,22,142)"/><rect x="18" y="162" width="8" height="8" transform="rotate(0,22,166)"/><rect x="18" y="170" width="8" height="8" transform="rotate(0,22,174)"/><rect x="18" y="194" width="8" height="8" transform="rotate(0,22,198)"/><rect x="18" y="210" width="8" height="8" transform="rotate(0,22,214)"/><rect x="26" y="74" width="8" height="8" transform="rotate(0,30,78)"/><rect x="26" y="82" width="8" height="8" transform="rotate(0,30,86)"/><rect x="26" y="106" width="8" height="8" transform="rotate(0,30,110)"/><rect x="26" y="122" width="8" height="8" transform="rotate(0,30,126)"/><rect x="26" y="130" width="8" height="8" transform="rotate(0,30,134)"/><rect x="26" y="146" width="8" height="8" transform="rotate(0,30,150)"/><rect x="26" y="154" width="8" height="8" transform="rotate(0,30,158)"/><rect x="26" y="170" width="8" height="8" transform="rotate(0,30,174)"/><rect x="26" y="178" width="8" height="8" transform="rotate(0,30,182)"/><rect x="26" y="202" width="8" height="8" transform="rotate(0,30,206)"/><rect x="26" y="218" width="8" height="8" transform="rotate(0,30,222)"/><rect x="26" y="226" width="8" height="8" transform="rotate(0,30,230)"/><rect x="34" y="98" width="8" height="8" transform="rotate(0,38,102)"/><rect x="34" y="130" width="8" height="8" transform="rotate(0,38,134)"/><rect x="34" y="138" width="8" height="8" transform="rotate(0,38,142)"/><rect x="34" y="146" width="8" height="8" transform="rotate(0,38,150)"/><rect x="34" y="186" width="8" height="8" transform="rotate(0,38,190)"/><rect x="42" y="90" width="8" height="8" transform="rotate(0,46,94)"/><rect x="42" y="106" width="8" height="8" transform="rotate(0,46,110)"/><rect x="42" y="122" width="8" height="8" transform="rotate(0,46,126)"/><rect x="42" y="130" width="8" height="8" transform="rotate(0,46,134)"/><rect x="42" y="138" width="8" height="8" transform="rotate(0,46,142)"/><rect x="42" y="154" width="8" height="8" transform="rotate(0,46,158)"/><rect x="42" y="162" width="8" height="8" transform="rotate(0,46,166)"/><rect x="42" y="170" width="8" height="8" transform="rotate(0,46,174)"/><rect x="42" y="178" width="8" height="8" transform="rotate(0,46,182)"/><rect x="42" y="226" width="8" height="8" transform="rotate(0,46,230)"/><rect x="50" y="66" width="8" height="8" transform="rotate(0,54,70)"/><rect x="50" y="82" width="8" height="8" transform="rotate(0,54,86)"/><rect x="50" y="98" width="8" height="8" transform="rotate(0,54,102)"/><rect x="50" y="114" width="8" height="8" transform="rotate(0,54,118)"/><rect x="50" y="130" width="8" height="8" transform="rotate(0,54,134)"/><rect x="50" y="146" width="8" height="8" transform="rotate(0,54,150)"/><rect x="50" y="162" width="8" height="8" transform="rotate(0,54,166)"/><rect x="50" y="178" width="8" height="8" transform="rotate(0,54,182)"/><rect x="50" y="194" width="8" height="8" transform="rotate(0,54,198)"/><rect x="50" y="210" width="8" height="8" transform="rotate(0,54,214)"/><rect x="50" y="226" width="8" height="8" transform="rotate(0,54,230)"/><rect x="58" y="106" width="8" height="8" transform="rotate(0,62,110)"/><rect x="58" y="130" width="8" height="8" transform="rotate(0,62,134)"/><rect x="58" y="162" width="8" height="8" transform="rotate(0,62,166)"/><rect x="58" y="186" width="8" height="8" transform="rotate(0,62,190)"/><rect x="58" y="210" width="8" height="8" transform="rotate(0,62,214)"/><rect x="58" y="218" width="8" height="8" transform="rotate(0,62,222)"/><rect x="58" y="226" width="8" height="8" transform="rotate(0,62,230)"/><rect x="66" y="10" width="8" height="8" transform="rotate(0,70,14)"/><rect x="66" y="50" width="8" height="8" transform="rotate(0,70,54)"/><rect x="66" y="58" width="8" height="8" transform="rotate(0,70,62)"/><rect x="66" y="66" width="8" height="8" transform="rotate(0,70,70)"/><rect x="66" y="74" width="8" height="8" transform="rotate(0,70,78)"/><rect x="66" y="82" width="8" height="8" transform="rotate(0,70,86)"/><rect x="66" y="90" width="8" height="8" transform="rotate(0,70,94)"/><rect x="66" y="98" width="8" height="8" transform="rotate(0,70,102)"/><rect x="66" y="106" width="8" height="8" transform="rotate(0,70,110)"/><rect x="66" y="114" width="8" height="8" transform="rotate(0,70,118)"/><rect x="66" y="138" width="8" height="8" transform="rotate(0,70,142)"/><rect x="66" y="146" width="8" height="8" transform="rotate(0,70,150)"/><rect x="66" y="178" width="8" height="8" transform="rotate(0,70,182)"/><rect x="66" y="186" width="8" height="8" transform="rotate(0,70,190)"/><rect x="66" y="194" width="8" height="8" transform="rotate(0,70,198)"/><rect x="66" y="234" width="8" height="8" transform="rotate(0,70,238)"/><rect x="66" y="282" width="8" height="8" transform="rotate(0,70,286)"/><rect x="66" y="290" width="8" height="8" transform="rotate(0,70,294)"/><rect x="74" y="10" width="8" height="8" transform="rotate(0,78,14)"/><rect x="74" y="58" width="8" height="8" transform="rotate(0,78,62)"/><rect x="74" y="82" width="8" height="8" transform="rotate(0,78,86)"/><rect x="74" y="114" width="8" height="8" transform="rotate(0,78,118)"/><rect x="74" y="138" width="8" height="8" transform="rotate(0,78,142)"/><rect x="74" y="146" width="8" height="8" transform="rotate(0,78,150)"/><rect x="74" y="178" width="8" height="8" transform="rotate(0,78,182)"/><rect x="74" y="186" width="8" height="8" transform="rotate(0,78,190)"/><rect x="74" y="194" width="8" height="8" transform="rotate(0,78,198)"/><rect x="74" y="202" width="8" height="8" transform="rotate(0,78,206)"/><rect x="74" y="242" width="8" height="8" transform="rotate(0,78,246)"/><rect x="74" y="258" width="8" height="8" transform="rotate(0,78,262)"/><rect x="74" y="266" width="8" height="8" transform="rotate(0,78,270)"/><rect x="74" y="274" width="8" height="8" transform="rotate(0,78,278)"/><rect x="82" y="2" width="8" height="8" transform="rotate(0,86,6)"/><rect x="82" y="18" width="8" height="8" transform="rotate(0,86,22)"/><rect x="82" y="34" width="8" height="8" transform="rotate(0,86,38)"/><rect x="82" y="50" width="8" height="8" transform="rotate(0,86,54)"/><rect x="82" y="58" width="8" height="8" transform="rotate(0,86,62)"/><rect x="82" y="74" width="8" height="8" transform="rotate(0,86,78)"/><rect x="82" y="106" width="8" height="8" transform="rotate(0,86,110)"/><rect x="82" y="114" width="8" height="8" transform="rotate(0,86,118)"/><rect x="82" y="138" width="8" height="8" transform="rotate(0,86,142)"/><rect x="82" y="154" width="8" height="8" transform="rotate(0,86,158)"/><rect x="82" y="162" width="8" height="8" transform="rotate(0,86,166)"/><rect x="82" y="178" width="8" height="8" transform="rotate(0,86,182)"/><rect x="82" y="194" width="8" height="8" transform="rotate(0,86,198)"/><rect x="82" y="202" width="8" height="8" transform="rotate(0,86,206)"/><rect x="82" y="210" width="8" height="8" transform="rotate(0,86,214)"/><rect x="82" y="242" width="8" height="8" transform="rotate(0,86,246)"/><rect x="82" y="250" width="8" height="8" transform="rotate(0,86,254)"/><rect x="82" y="266" width="8" height="8" transform="rotate(0,86,270)"/><rect x="82" y="274" width="8" height="8" transform="rotate(0,86,278)"/><rect x="82" y="290" width="8" height="8" transform="rotate(0,86,294)"/><rect x="90" y="10" width="8" height="8" transform="rotate(0,94,14)"/><rect x="90" y="26" width="8" height="8" transform="rotate(0,94,30)"/><rect x="90" y="42" width="8" height="8" transform="rotate(0,94,46)"/><rect x="90" y="74" width="8" height="8" transform="rotate(0,94,78)"/><rect x="90" y="90" width="8" height="8" transform="rotate(0,94,94)"/><rect x="90" y="106" width="8" height="8" transform="rotate(0,94,110)"/><rect x="90" y="130" width="8" height="8" transform="rotate(0,94,134)"/><rect x="90" y="138" width="8" height="8" transform="rotate(0,94,142)"/><rect x="90" y="194" width="8" height="8" transform="rotate(0,94,198)"/><rect x="90" y="210" width="8" height="8" transform="rotate(0,94,214)"/><rect x="90" y="218" width="8" height="8" transform="rotate(0,94,222)"/><rect x="90" y="226" width="8" height="8" transform="rotate(0,94,230)"/><rect x="90" y="242" width="8" height="8" transform="rotate(0,94,246)"/><rect x="90" y="250" width="8" height="8" transform="rotate(0,94,254)"/><rect x="90" y="258" width="8" height="8" transform="rotate(0,94,262)"/><rect x="90" y="266" width="8" height="8" transform="rotate(0,94,270)"/><rect x="90" y="282" width="8" height="8" transform="rotate(0,94,286)"/><rect x="90" y="290" width="8" height="8" transform="rotate(0,94,294)"/><rect x="98" y="2" width="8" height="8" transform="rotate(0,102,6)"/><rect x="98" y="10" width="8" height="8" transform="rotate(0,102,14)"/><rect x="98" y="50" width="8" height="8" transform="rotate(0,102,54)"/><rect x="98" y="58" width="8" height="8" transform="rotate(0,102,62)"/><rect x="98" y="74" width="8" height="8" transform="rotate(0,102,78)"/><rect x="98" y="90" width="8" height="8" transform="rotate(0,102,94)"/><rect x="98" y="98" width="8" height="8" transform="rotate(0,102,102)"/><rect x="98" y="106" width="8" height="8" transform="rotate(0,102,110)"/><rect x="98" y="130" width="8" height="8" transform="rotate(0,102,134)"/><rect x="98" y="162" width="8" height="8" transform="rotate(0,102,166)"/><rect x="98" y="178" width="8" height="8" transform="rotate(0,102,182)"/><rect x="98" y="186" width="8" height="8" transform="rotate(0,102,190)"/><rect x="98" y="194" width="8" height="8" transform="rotate(0,102,198)"/><rect x="98" y="226" width="8" height="8" transform="rotate(0,102,230)"/><rect x="98" y="242" width="8" height="8" transform="rotate(0,102,246)"/><rect x="98" y="266" width="8" height="8" transform="rotate(0,102,270)"/><rect x="106" y="18" width="8" height="8" transform="rotate(0,110,22)"/><rect x="106" y="26" width="8" height="8" transform="rotate(0,110,30)"/><rect x="106" y="42" width="8" height="8" transform="rotate(0,110,46)"/><rect x="106" y="66" width="8" height="8" transform="rotate(0,110,70)"/><rect x="106" y="74" width="8" height="8" transform="rotate(0,110,78)"/><rect x="106" y="114" width="8" height="8" transform="rotate(0,110,118)"/><rect x="106" y="122" width="8" height="8" transform="rotate(0,110,126)"/><rect x="106" y="146" width="8" height="8" transform="rotate(0,110,150)"/><rect x="106" y="170" width="8" height="8" transform="rotate(0,110,174)"/><rect x="106" y="178" width="8" height="8" transform="rotate(0,110,182)"/><rect x="106" y="186" width="8" height="8" transform="rotate(0,110,190)"/><rect x="106" y="218" width="8" height="8" transform="rotate(0,110,222)"/><rect x="106" y="226" width="8" height="8" transform="rotate(0,110,230)"/><rect x="106" y="234" width="8" height="8" transform="rotate(0,110,238)"/><rect x="106" y="250" width="8" height="8" transform="rotate(0,110,254)"/><rect x="106" y="274" width="8" height="8" transform="rotate(0,110,278)"/><rect x="106" y="282" width="8" height="8" transform="rotate(0,110,286)"/><rect x="114" y="10" width="8" height="8" transform="rotate(0,118,14)"/><rect x="114" y="18" width="8" height="8" transform="rotate(0,118,22)"/><rect x="114" y="34" width="8" height="8" transform="rotate(0,118,38)"/><rect x="114" y="50" width="8" height="8" transform="rotate(0,118,54)"/><rect x="114" y="82" width="8" height="8" transform="rotate(0,118,86)"/><rect x="114" y="130" width="8" height="8" transform="rotate(0,118,134)"/><rect x="114" y="138" width="8" height="8" transform="rotate(0,118,142)"/><rect x="114" y="154" width="8" height="8" transform="rotate(0,118,158)"/><rect x="114" y="178" width="8" height="8" transform="rotate(0,118,182)"/><rect x="114" y="210" width="8" height="8" transform="rotate(0,118,214)"/><rect x="114" y="218" width="8" height="8" transform="rotate(0,118,222)"/><rect x="114" y="226" width="8" height="8" transform="rotate(0,118,230)"/><rect x="114" y="234" width="8" height="8" transform="rotate(0,118,238)"/><rect x="114" y="242" width="8" height="8" transform="rotate(0,118,246)"/><rect x="114" y="266" width="8" height="8" transform="rotate(0,118,270)"/><rect x="114" y="282" width="8" height="8" transform="rotate(0,118,286)"/><rect x="114" y="290" width="8" height="8" transform="rotate(0,118,294)"/><rect x="122" y="10" width="8" height="8" transform="rotate(0,126,14)"/><rect x="122" y="26" width="8" height="8" transform="rotate(0,126,30)"/><rect x="122" y="34" width="8" height="8" transform="rotate(0,126,38)"/><rect x="122" y="58" width="8" height="8" transform="rotate(0,126,62)"/><rect x="122" y="66" width="8" height="8" transform="rotate(0,126,70)"/><rect x="122" y="74" width="8" height="8" transform="rotate(0,126,78)"/><rect x="122" y="90" width="8" height="8" transform="rotate(0,126,94)"/><rect x="122" y="114" width="8" height="8" transform="rotate(0,126,118)"/><rect x="122" y="122" width="8" height="8" transform="rotate(0,126,126)"/><rect x="122" y="138" width="8" height="8" transform="rotate(0,126,142)"/><rect x="122" y="146" width="8" height="8" transform="rotate(0,126,150)"/><rect x="122" y="154" width="8" height="8" transform="rotate(0,126,158)"/><rect x="122" y="170" width="8" height="8" transform="rotate(0,126,174)"/><rect x="122" y="178" width="8" height="8" transform="rotate(0,126,182)"/><rect x="122" y="186" width="8" height="8" transform="rotate(0,126,190)"/><rect x="122" y="194" width="8" height="8" transform="rotate(0,126,198)"/><rect x="122" y="226" width="8" height="8" transform="rotate(0,126,230)"/><rect x="122" y="234" width="8" height="8" transform="rotate(0,126,238)"/><rect x="122" y="242" width="8" height="8" transform="rotate(0,126,246)"/><rect x="122" y="258" width="8" height="8" transform="rotate(0,126,262)"/><rect x="122" y="266" width="8" height="8" transform="rotate(0,126,270)"/><rect x="122" y="274" width="8" height="8" transform="rotate(0,126,278)"/><rect x="122" y="282" width="8" height="8" transform="rotate(0,126,286)"/><rect x="130" y="2" width="8" height="8" transform="rotate(0,134,6)"/><rect x="130" y="10" width="8" height="8" transform="rotate(0,134,14)"/><rect x="130" y="26" width="8" height="8" transform="rotate(0,134,30)"/><rect x="130" y="50" width="8" height="8" transform="rotate(0,134,54)"/><rect x="130" y="58" width="8" height="8" transform="rotate(0,134,62)"/><rect x="130" y="66" width="8" height="8" transform="rotate(0,134,70)"/><rect x="130" y="74" width="8" height="8" transform="rotate(0,134,78)"/><rect x="130" y="82" width="8" height="8" transform="rotate(0,134,86)"/><rect x="130" y="90" width="8" height="8" transform="rotate(0,134,94)"/><rect x="130" y="98" width="8" height="8" transform="rotate(0,134,102)"/><rect x="130" y="106" width="8" height="8" transform="rotate(0,134,110)"/><rect x="130" y="122" width="8" height="8" transform="rotate(0,134,126)"/><rect x="130" y="130" width="8" height="8" transform="rotate(0,134,134)"/><rect x="130" y="146" width="8" height="8" transform="rotate(0,134,150)"/><rect x="130" y="154" width="8" height="8" transform="rotate(0,134,158)"/><rect x="130" y="162" width="8" height="8" transform="rotate(0,134,166)"/><rect x="130" y="170" width="8" height="8" transform="rotate(0,134,174)"/><rect x="130" y="178" width="8" height="8" transform="rotate(0,134,182)"/><rect x="130" y="194" width="8" height="8" transform="rotate(0,134,198)"/><rect x="130" y="202" width="8" height="8" transform="rotate(0,134,206)"/><rect x="130" y="210" width="8" height="8" transform="rotate(0,134,214)"/><rect x="130" y="234" width="8" height="8" transform="rotate(0,134,238)"/><rect x="130" y="242" width="8" height="8" transform="rotate(0,134,246)"/><rect x="130" y="258" width="8" height="8" transform="rotate(0,134,262)"/><rect x="130" y="274" width="8" height="8" transform="rotate(0,134,278)"/><rect x="130" y="290" width="8" height="8" transform="rotate(0,134,294)"/><rect x="138" y="2" width="8" height="8" transform="rotate(0,142,6)"/><rect x="138" y="18" width="8" height="8" transform="rotate(0,142,22)"/><rect x="138" y="34" width="8" height="8" transform="rotate(0,142,38)"/><rect x="138" y="42" width="8" height="8" transform="rotate(0,142,46)"/><rect x="138" y="98" width="8" height="8" transform="rotate(0,142,102)"/><rect x="138" y="122" width="8" height="8" transform="rotate(0,142,126)"/><rect x="138" y="130" width="8" height="8" transform="rotate(0,142,134)"/><rect x="138" y="146" width="8" height="8" transform="rotate(0,142,150)"/><rect x="138" y="162" width="8" height="8" transform="rotate(0,142,166)"/><rect x="138" y="170" width="8" height="8" transform="rotate(0,142,174)"/><rect x="138" y="218" width="8" height="8" transform="rotate(0,142,222)"/><rect x="138" y="226" width="8" height="8" transform="rotate(0,142,230)"/><rect x="138" y="234" width="8" height="8" transform="rotate(0,142,238)"/><rect x="138" y="250" width="8" height="8" transform="rotate(0,142,254)"/><rect x="146" y="18" width="8" height="8" transform="rotate(0,150,22)"/><rect x="146" y="34" width="8" height="8" transform="rotate(0,150,38)"/><rect x="146" y="50" width="8" height="8" transform="rotate(0,150,54)"/><rect x="146" y="74" width="8" height="8" transform="rotate(0,150,78)"/><rect x="146" y="82" width="8" height="8" transform="rotate(0,150,86)"/><rect x="146" y="98" width="8" height="8" transform="rotate(0,150,102)"/><rect x="146" y="106" width="8" height="8" transform="rotate(0,150,110)"/><rect x="146" y="114" width="8" height="8" transform="rotate(0,150,118)"/><rect x="146" y="122" width="8" height="8" transform="rotate(0,150,126)"/><rect x="146" y="138" width="8" height="8" transform="rotate(0,150,142)"/><rect x="146" y="170" width="8" height="8" transform="rotate(0,150,174)"/><rect x="146" y="194" width="8" height="8" transform="rotate(0,150,198)"/><rect x="146" y="202" width="8" height="8" transform="rotate(0,150,206)"/><rect x="146" y="210" width="8" height="8" transform="rotate(0,150,214)"/><rect x="146" y="218" width="8" height="8" transform="rotate(0,150,222)"/><rect x="146" y="234" width="8" height="8" transform="rotate(0,150,238)"/><rect x="146" y="242" width="8" height="8" transform="rotate(0,150,246)"/><rect x="146" y="250" width="8" height="8" transform="rotate(0,150,254)"/><rect x="146" y="258" width="8" height="8" transform="rotate(0,150,262)"/><rect x="146" y="266" width="8" height="8" transform="rotate(0,150,270)"/><rect x="146" y="290" width="8" height="8" transform="rotate(0,150,294)"/><rect x="154" y="2" width="8" height="8" transform="rotate(0,158,6)"/><rect x="154" y="10" width="8" height="8" transform="rotate(0,158,14)"/><rect x="154" y="18" width="8" height="8" transform="rotate(0,158,22)"/><rect x="154" y="26" width="8" height="8" transform="rotate(0,158,30)"/><rect x="154" y="42" width="8" height="8" transform="rotate(0,158,46)"/><rect x="154" y="58" width="8" height="8" transform="rotate(0,158,62)"/><rect x="154" y="66" width="8" height="8" transform="rotate(0,158,70)"/><rect x="154" y="74" width="8" height="8" transform="rotate(0,158,78)"/><rect x="154" y="82" width="8" height="8" transform="rotate(0,158,86)"/><rect x="154" y="90" width="8" height="8" transform="rotate(0,158,94)"/><rect x="154" y="98" width="8" height="8" transform="rotate(0,158,102)"/><rect x="154" y="114" width="8" height="8" transform="rotate(0,158,118)"/><rect x="154" y="122" width="8" height="8" transform="rotate(0,158,126)"/><rect x="154" y="130" width="8" height="8" transform="rotate(0,158,134)"/><rect x="154" y="138" width="8" height="8" transform="rotate(0,158,142)"/><rect x="154" y="154" width="8" height="8" transform="rotate(0,158,158)"/><rect x="154" y="178" width="8" height="8" transform="rotate(0,158,182)"/><rect x="154" y="186" width="8" height="8" transform="rotate(0,158,190)"/><rect x="154" y="210" width="8" height="8" transform="rotate(0,158,214)"/><rect x="154" y="218" width="8" height="8" transform="rotate(0,158,222)"/><rect x="154" y="226" width="8" height="8" transform="rotate(0,158,230)"/><rect x="154" y="242" width="8" height="8" transform="rotate(0,158,246)"/><rect x="154" y="258" width="8" height="8" transform="rotate(0,158,262)"/><rect x="154" y="282" width="8" height="8" transform="rotate(0,158,286)"/><rect x="154" y="290" width="8" height="8" transform="rotate(0,158,294)"/><rect x="162" y="50" width="8" height="8" transform="rotate(0,166,54)"/><rect x="162" y="58" width="8" height="8" transform="rotate(0,166,62)"/><rect x="162" y="66" width="8" height="8" transform="rotate(0,166,70)"/><rect x="162" y="74" width="8" height="8" transform="rotate(0,166,78)"/><rect x="162" y="90" width="8" height="8" transform="rotate(0,166,94)"/><rect x="162" y="98" width="8" height="8" transform="rotate(0,166,102)"/><rect x="162" y="130" width="8" height="8" transform="rotate(0,166,134)"/><rect x="162" y="154" width="8" height="8" transform="rotate(0,166,158)"/><rect x="162" y="162" width="8" height="8" transform="rotate(0,166,166)"/><rect x="162" y="178" width="8" height="8" transform="rotate(0,166,182)"/><rect x="162" y="186" width="8" height="8" transform="rotate(0,166,190)"/><rect x="162" y="194" width="8" height="8" transform="rotate(0,166,198)"/><rect x="162" y="202" width="8" height="8" transform="rotate(0,166,206)"/><rect x="162" y="210" width="8" height="8" transform="rotate(0,166,214)"/><rect x="162" y="234" width="8" height="8" transform="rotate(0,166,238)"/><rect x="162" y="242" width="8" height="8" transform="rotate(0,166,246)"/><rect x="162" y="250" width="8" height="8" transform="rotate(0,166,254)"/><rect x="162" y="258" width="8" height="8" transform="rotate(0,166,262)"/><rect x="162" y="266" width="8" height="8" transform="rotate(0,166,270)"/><rect x="162" y="274" width="8" height="8" transform="rotate(0,166,278)"/><rect x="162" y="290" width="8" height="8" transform="rotate(0,166,294)"/><rect x="170" y="2" width="8" height="8" transform="rotate(0,174,6)"/><rect x="170" y="58" width="8" height="8" transform="rotate(0,174,62)"/><rect x="170" y="90" width="8" height="8" transform="rotate(0,174,94)"/><rect x="170" y="114" width="8" height="8" transform="rotate(0,174,118)"/><rect x="170" y="130" width="8" height="8" transform="rotate(0,174,134)"/><rect x="170" y="154" width="8" height="8" transform="rotate(0,174,158)"/><rect x="170" y="162" width="8" height="8" transform="rotate(0,174,166)"/><rect x="170" y="186" width="8" height="8" transform="rotate(0,174,190)"/><rect x="170" y="194" width="8" height="8" transform="rotate(0,174,198)"/><rect x="170" y="202" width="8" height="8" transform="rotate(0,174,206)"/><rect x="170" y="210" width="8" height="8" transform="rotate(0,174,214)"/><rect x="170" y="218" width="8" height="8" transform="rotate(0,174,222)"/><rect x="170" y="226" width="8" height="8" transform="rotate(0,174,230)"/><rect x="170" y="250" width="8" height="8" transform="rotate(0,174,254)"/><rect x="170" y="258" width="8" height="8" transform="rotate(0,174,262)"/><rect x="170" y="266" width="8" height="8" transform="rotate(0,174,270)"/><rect x="178" y="2" width="8" height="8" transform="rotate(0,182,6)"/><rect x="178" y="10" width="8" height="8" transform="rotate(0,182,14)"/><rect x="178" y="42" width="8" height="8" transform="rotate(0,182,46)"/><rect x="178" y="50" width="8" height="8" transform="rotate(0,182,54)"/><rect x="178" y="58" width="8" height="8" transform="rotate(0,182,62)"/><rect x="178" y="66" width="8" height="8" transform="rotate(0,182,70)"/><rect x="178" y="74" width="8" height="8" transform="rotate(0,182,78)"/><rect x="178" y="98" width="8" height="8" transform="rotate(0,182,102)"/><rect x="178" y="162" width="8" height="8" transform="rotate(0,182,166)"/><rect x="178" y="194" width="8" height="8" transform="rotate(0,182,198)"/><rect x="178" y="202" width="8" height="8" transform="rotate(0,182,206)"/><rect x="178" y="210" width="8" height="8" transform="rotate(0,182,214)"/><rect x="178" y="218" width="8" height="8" transform="rotate(0,182,222)"/><rect x="178" y="234" width="8" height="8" transform="rotate(0,182,238)"/><rect x="178" y="274" width="8" height="8" transform="rotate(0,182,278)"/><rect x="178" y="282" width="8" height="8" transform="rotate(0,182,286)"/><rect x="178" y="290" width="8" height="8" transform="rotate(0,182,294)"/><rect x="186" y="2" width="8" height="8" transform="rotate(0,190,6)"/><rect x="186" y="42" width="8" height="8" transform="rotate(0,190,46)"/><rect x="186" y="58" width="8" height="8" transform="rotate(0,190,62)"/><rect x="186" y="90" width="8" height="8" transform="rotate(0,190,94)"/><rect x="186" y="106" width="8" height="8" transform="rotate(0,190,110)"/><rect x="186" y="114" width="8" height="8" transform="rotate(0,190,118)"/><rect x="186" y="122" width="8" height="8" transform="rotate(0,190,126)"/><rect x="186" y="146" width="8" height="8" transform="rotate(0,190,150)"/><rect x="186" y="162" width="8" height="8" transform="rotate(0,190,166)"/><rect x="186" y="178" width="8" height="8" transform="rotate(0,190,182)"/><rect x="186" y="202" width="8" height="8" transform="rotate(0,190,206)"/><rect x="186" y="218" width="8" height="8" transform="rotate(0,190,222)"/><rect x="186" y="250" width="8" height="8" transform="rotate(0,190,254)"/><rect x="186" y="266" width="8" height="8" transform="rotate(0,190,270)"/><rect x="186" y="282" width="8" height="8" transform="rotate(0,190,286)"/><rect x="194" y="10" width="8" height="8" transform="rotate(0,198,14)"/><rect x="194" y="34" width="8" height="8" transform="rotate(0,198,38)"/><rect x="194" y="50" width="8" height="8" transform="rotate(0,198,54)"/><rect x="194" y="58" width="8" height="8" transform="rotate(0,198,62)"/><rect x="194" y="98" width="8" height="8" transform="rotate(0,198,102)"/><rect x="194" y="122" width="8" height="8" transform="rotate(0,198,126)"/><rect x="194" y="146" width="8" height="8" transform="rotate(0,198,150)"/><rect x="194" y="186" width="8" height="8" transform="rotate(0,198,190)"/><rect x="194" y="202" width="8" height="8" transform="rotate(0,198,206)"/><rect x="194" y="250" width="8" height="8" transform="rotate(0,198,254)"/><rect x="194" y="266" width="8" height="8" transform="rotate(0,198,270)"/><rect x="202" y="2" width="8" height="8" transform="rotate(0,206,6)"/><rect x="202" y="10" width="8" height="8" transform="rotate(0,206,14)"/><rect x="202" y="18" width="8" height="8" transform="rotate(0,206,22)"/><rect x="202" y="34" width="8" height="8" transform="rotate(0,206,38)"/><rect x="202" y="42" width="8" height="8" transform="rotate(0,206,46)"/><rect x="202" y="58" width="8" height="8" transform="rotate(0,206,62)"/><rect x="202" y="66" width="8" height="8" transform="rotate(0,206,70)"/><rect x="202" y="98" width="8" height="8" transform="rotate(0,206,102)"/><rect x="202" y="106" width="8" height="8" transform="rotate(0,206,110)"/><rect x="202" y="114" width="8" height="8" transform="rotate(0,206,118)"/><rect x="202" y="130" width="8" height="8" transform="rotate(0,206,134)"/><rect x="202" y="138" width="8" height="8" transform="rotate(0,206,142)"/><rect x="202" y="146" width="8" height="8" transform="rotate(0,206,150)"/><rect x="202" y="154" width="8" height="8" transform="rotate(0,206,158)"/><rect x="202" y="186" width="8" height="8" transform="rotate(0,206,190)"/><rect x="202" y="202" width="8" height="8" transform="rotate(0,206,206)"/><rect x="202" y="242" width="8" height="8" transform="rotate(0,206,246)"/><rect x="202" y="250" width="8" height="8" transform="rotate(0,206,254)"/><rect x="202" y="266" width="8" height="8" transform="rotate(0,206,270)"/><rect x="202" y="274" width="8" height="8" transform="rotate(0,206,278)"/><rect x="210" y="2" width="8" height="8" transform="rotate(0,214,6)"/><rect x="210" y="26" width="8" height="8" transform="rotate(0,214,30)"/><rect x="210" y="50" width="8" height="8" transform="rotate(0,214,54)"/><rect x="210" y="74" width="8" height="8" transform="rotate(0,214,78)"/><rect x="210" y="82" width="8" height="8" transform="rotate(0,214,86)"/><rect x="210" y="90" width="8" height="8" transform="rotate(0,214,94)"/><rect x="210" y="98" width="8" height="8" transform="rotate(0,214,102)"/><rect x="210" y="106" width="8" height="8" transform="rotate(0,214,110)"/><rect x="210" y="114" width="8" height="8" transform="rotate(0,214,118)"/><rect x="210" y="146" width="8" height="8" transform="rotate(0,214,150)"/><rect x="210" y="162" width="8" height="8" transform="rotate(0,214,166)"/><rect x="210" y="170" width="8" height="8" transform="rotate(0,214,174)"/><rect x="210" y="194" width="8" height="8" transform="rotate(0,214,198)"/><rect x="210" y="202" width="8" height="8" transform="rotate(0,214,206)"/><rect x="210" y="210" width="8" height="8" transform="rotate(0,214,214)"/><rect x="210" y="218" width="8" height="8" transform="rotate(0,214,222)"/><rect x="210" y="226" width="8" height="8" transform="rotate(0,214,230)"/><rect x="210" y="242" width="8" height="8" transform="rotate(0,214,246)"/><rect x="210" y="258" width="8" height="8" transform="rotate(0,214,262)"/><rect x="210" y="274" width="8" height="8" transform="rotate(0,214,278)"/><rect x="210" y="282" width="8" height="8" transform="rotate(0,214,286)"/><rect x="210" y="290" width="8" height="8" transform="rotate(0,214,294)"/><rect x="218" y="2" width="8" height="8" transform="rotate(0,222,6)"/><rect x="218" y="34" width="8" height="8" transform="rotate(0,222,38)"/><rect x="218" y="66" width="8" height="8" transform="rotate(0,222,70)"/><rect x="218" y="106" width="8" height="8" transform="rotate(0,222,110)"/><rect x="218" y="114" width="8" height="8" transform="rotate(0,222,118)"/><rect x="218" y="130" width="8" height="8" transform="rotate(0,222,134)"/><rect x="218" y="162" width="8" height="8" transform="rotate(0,222,166)"/><rect x="218" y="194" width="8" height="8" transform="rotate(0,222,198)"/><rect x="218" y="210" width="8" height="8" transform="rotate(0,222,214)"/><rect x="218" y="226" width="8" height="8" transform="rotate(0,222,230)"/><rect x="218" y="234" width="8" height="8" transform="rotate(0,222,238)"/><rect x="218" y="258" width="8" height="8" transform="rotate(0,222,262)"/><rect x="218" y="266" width="8" height="8" transform="rotate(0,222,270)"/><rect x="218" y="274" width="8" height="8" transform="rotate(0,222,278)"/><rect x="218" y="282" width="8" height="8" transform="rotate(0,222,286)"/><rect x="226" y="2" width="8" height="8" transform="rotate(0,230,6)"/><rect x="226" y="18" width="8" height="8" transform="rotate(0,230,22)"/><rect x="226" y="34" width="8" height="8" transform="rotate(0,230,38)"/><rect x="226" y="50" width="8" height="8" transform="rotate(0,230,54)"/><rect x="226" y="82" width="8" height="8" transform="rotate(0,230,86)"/><rect x="226" y="90" width="8" height="8" transform="rotate(0,230,94)"/><rect x="226" y="98" width="8" height="8" transform="rotate(0,230,102)"/><rect x="226" y="106" width="8" height="8" transform="rotate(0,230,110)"/><rect x="226" y="114" width="8" height="8" transform="rotate(0,230,118)"/><rect x="226" y="130" width="8" height="8" transform="rotate(0,230,134)"/><rect x="226" y="146" width="8" height="8" transform="rotate(0,230,150)"/><rect x="226" y="162" width="8" height="8" transform="rotate(0,230,166)"/><rect x="226" y="202" width="8" height="8" transform="rotate(0,230,206)"/><rect x="226" y="210" width="8" height="8" transform="rotate(0,230,214)"/><rect x="226" y="218" width="8" height="8" transform="rotate(0,230,222)"/><rect x="226" y="226" width="8" height="8" transform="rotate(0,230,230)"/><rect x="226" y="234" width="8" height="8" transform="rotate(0,230,238)"/><rect x="226" y="242" width="8" height="8" transform="rotate(0,230,246)"/><rect x="226" y="250" width="8" height="8" transform="rotate(0,230,254)"/><rect x="226" y="258" width="8" height="8" transform="rotate(0,230,262)"/><rect x="226" y="274" width="8" height="8" transform="rotate(0,230,278)"/><rect x="226" y="282" width="8" height="8" transform="rotate(0,230,286)"/><rect x="234" y="66" width="8" height="8" transform="rotate(0,238,70)"/><rect x="234" y="82" width="8" height="8" transform="rotate(0,238,86)"/><rect x="234" y="90" width="8" height="8" transform="rotate(0,238,94)"/><rect x="234" y="114" width="8" height="8" transform="rotate(0,238,118)"/><rect x="234" y="122" width="8" height="8" transform="rotate(0,238,126)"/><rect x="234" y="138" width="8" height="8" transform="rotate(0,238,142)"/><rect x="234" y="178" width="8" height="8" transform="rotate(0,238,182)"/><rect x="234" y="186" width="8" height="8" transform="rotate(0,238,190)"/><rect x="234" y="226" width="8" height="8" transform="rotate(0,238,230)"/><rect x="234" y="258" width="8" height="8" transform="rotate(0,238,262)"/><rect x="234" y="266" width="8" height="8" transform="rotate(0,238,270)"/><rect x="234" y="282" width="8" height="8" transform="rotate(0,238,286)"/><rect x="242" y="66" width="8" height="8" transform="rotate(0,246,70)"/><rect x="242" y="74" width="8" height="8" transform="rotate(0,246,78)"/><rect x="242" y="98" width="8" height="8" transform="rotate(0,246,102)"/><rect x="242" y="122" width="8" height="8" transform="rotate(0,246,126)"/><rect x="242" y="162" width="8" height="8" transform="rotate(0,246,166)"/><rect x="242" y="170" width="8" height="8" transform="rotate(0,246,174)"/><rect x="242" y="178" width="8" height="8" transform="rotate(0,246,182)"/><rect x="242" y="186" width="8" height="8" transform="rotate(0,246,190)"/><rect x="242" y="194" width="8" height="8" transform="rotate(0,246,198)"/><rect x="242" y="202" width="8" height="8" transform="rotate(0,246,206)"/><rect x="242" y="210" width="8" height="8" transform="rotate(0,246,214)"/><rect x="242" y="226" width="8" height="8" transform="rotate(0,246,230)"/><rect x="242" y="242" width="8" height="8" transform="rotate(0,246,246)"/><rect x="242" y="258" width="8" height="8" transform="rotate(0,246,262)"/><rect x="242" y="266" width="8" height="8" transform="rotate(0,246,270)"/><rect x="242" y="274" width="8" height="8" transform="rotate(0,246,278)"/><rect x="242" y="290" width="8" height="8" transform="rotate(0,246,294)"/><rect x="250" y="74" width="8" height="8" transform="rotate(0,254,78)"/><rect x="250" y="90" width="8" height="8" transform="rotate(0,254,94)"/><rect x="250" y="98" width="8" height="8" transform="rotate(0,254,102)"/><rect x="250" y="122" width="8" height="8" transform="rotate(0,254,126)"/><rect x="250" y="138" width="8" height="8" transform="rotate(0,254,142)"/><rect x="250" y="146" width="8" height="8" transform="rotate(0,254,150)"/><rect x="250" y="162" width="8" height="8" transform="rotate(0,254,166)"/><rect x="250" y="178" width="8" height="8" transform="rotate(0,254,182)"/><rect x="250" y="194" width="8" height="8" transform="rotate(0,254,198)"/><rect x="250" y="210" width="8" height="8" transform="rotate(0,254,214)"/><rect x="250" y="218" width="8" height="8" transform="rotate(0,254,222)"/><rect x="250" y="226" width="8" height="8" transform="rotate(0,254,230)"/><rect x="250" y="258" width="8" height="8" transform="rotate(0,254,262)"/><rect x="250" y="266" width="8" height="8" transform="rotate(0,254,270)"/><rect x="250" y="282" width="8" height="8" transform="rotate(0,254,286)"/><rect x="258" y="74" width="8" height="8" transform="rotate(0,262,78)"/><rect x="258" y="82" width="8" height="8" transform="rotate(0,262,86)"/><rect x="258" y="90" width="8" height="8" transform="rotate(0,262,94)"/><rect x="258" y="98" width="8" height="8" transform="rotate(0,262,102)"/><rect x="258" y="114" width="8" height="8" transform="rotate(0,262,118)"/><rect x="258" y="122" width="8" height="8" transform="rotate(0,262,126)"/><rect x="258" y="138" width="8" height="8" transform="rotate(0,262,142)"/><rect x="258" y="154" width="8" height="8" transform="rotate(0,262,158)"/><rect x="258" y="170" width="8" height="8" transform="rotate(0,262,174)"/><rect x="258" y="186" width="8" height="8" transform="rotate(0,262,190)"/><rect x="258" y="202" width="8" height="8" transform="rotate(0,262,206)"/><rect x="258" y="210" width="8" height="8" transform="rotate(0,262,214)"/><rect x="258" y="218" width="8" height="8" transform="rotate(0,262,222)"/><rect x="258" y="226" width="8" height="8" transform="rotate(0,262,230)"/><rect x="258" y="234" width="8" height="8" transform="rotate(0,262,238)"/><rect x="258" y="242" width="8" height="8" transform="rotate(0,262,246)"/><rect x="258" y="250" width="8" height="8" transform="rotate(0,262,254)"/><rect x="258" y="258" width="8" height="8" transform="rotate(0,262,262)"/><rect x="258" y="274" width="8" height="8" transform="rotate(0,262,278)"/><rect x="258" y="290" width="8" height="8" transform="rotate(0,262,294)"/><rect x="266" y="74" width="8" height="8" transform="rotate(0,270,78)"/><rect x="266" y="82" width="8" height="8" transform="rotate(0,270,86)"/><rect x="266" y="98" width="8" height="8" transform="rotate(0,270,102)"/><rect x="266" y="106" width="8" height="8" transform="rotate(0,270,110)"/><rect x="266" y="114" width="8" height="8" transform="rotate(0,270,118)"/><rect x="266" y="122" width="8" height="8" transform="rotate(0,270,126)"/><rect x="266" y="130" width="8" height="8" transform="rotate(0,270,134)"/><rect x="266" y="194" width="8" height="8" transform="rotate(0,270,198)"/><rect x="266" y="202" width="8" height="8" transform="rotate(0,270,206)"/><rect x="266" y="226" width="8" height="8" transform="rotate(0,270,230)"/><rect x="266" y="242" width="8" height="8" transform="rotate(0,270,246)"/><rect x="266" y="250" width="8" height="8" transform="rotate(0,270,254)"/><rect x="266" y="266" width="8" height="8" transform="rotate(0,270,270)"/><rect x="266" y="282" width="8" height="8" transform="rotate(0,270,286)"/><rect x="274" y="74" width="8" height="8" transform="rotate(0,278,78)"/><rect x="274" y="82" width="8" height="8" transform="rotate(0,278,86)"/><rect x="274" y="98" width="8" height="8" transform="rotate(0,278,102)"/><rect x="274" y="106" width="8" height="8" transform="rotate(0,278,110)"/><rect x="274" y="114" width="8" height="8" transform="rotate(0,278,118)"/><rect x="274" y="122" width="8" height="8" transform="rotate(0,278,126)"/><rect x="274" y="138" width="8" height="8" transform="rotate(0,278,142)"/><rect x="274" y="154" width="8" height="8" transform="rotate(0,278,158)"/><rect x="274" y="202" width="8" height="8" transform="rotate(0,278,206)"/><rect x="274" y="210" width="8" height="8" transform="rotate(0,278,214)"/><rect x="274" y="226" width="8" height="8" transform="rotate(0,278,230)"/><rect x="274" y="234" width="8" height="8" transform="rotate(0,278,238)"/><rect x="274" y="250" width="8" height="8" transform="rotate(0,278,254)"/><rect x="274" y="266" width="8" height="8" transform="rotate(0,278,270)"/><rect x="274" y="274" width="8" height="8" transform="rotate(0,278,278)"/><rect x="274" y="290" width="8" height="8" transform="rotate(0,278,294)"/><rect x="282" y="66" width="8" height="8" transform="rotate(0,286,70)"/><rect x="282" y="82" width="8" height="8" transform="rotate(0,286,86)"/><rect x="282" y="98" width="8" height="8" transform="rotate(0,286,102)"/><rect x="282" y="106" width="8" height="8" transform="rotate(0,286,110)"/><rect x="282" y="114" width="8" height="8" transform="rotate(0,286,118)"/><rect x="282" y="138" width="8" height="8" transform="rotate(0,286,142)"/><rect x="282" y="146" width="8" height="8" transform="rotate(0,286,150)"/><rect x="282" y="154" width="8" height="8" transform="rotate(0,286,158)"/><rect x="282" y="162" width="8" height="8" transform="rotate(0,286,166)"/><rect x="282" y="194" width="8" height="8" transform="rotate(0,286,198)"/><rect x="282" y="226" width="8" height="8" transform="rotate(0,286,230)"/><rect x="282" y="242" width="8" height="8" transform="rotate(0,286,246)"/><rect x="282" y="250" width="8" height="8" transform="rotate(0,286,254)"/><rect x="282" y="266" width="8" height="8" transform="rotate(0,286,270)"/><rect x="282" y="290" width="8" height="8" transform="rotate(0,286,294)"/><rect x="290" y="74" width="8" height="8" transform="rotate(0,294,78)"/><rect x="290" y="82" width="8" height="8" transform="rotate(0,294,86)"/><rect x="290" y="98" width="8" height="8" transform="rotate(0,294,102)"/><rect x="290" y="106" width="8" height="8" transform="rotate(0,294,110)"/><rect x="290" y="130" width="8" height="8" transform="rotate(0,294,134)"/><rect x="290" y="138" width="8" height="8" transform="rotate(0,294,142)"/><rect x="290" y="162" width="8" height="8" transform="rotate(0,294,166)"/><rect x="290" y="178" width="8" height="8" transform="rotate(0,294,182)"/><rect x="290" y="186" width="8" height="8" transform="rotate(0,294,190)"/><rect x="290" y="226" width="8" height="8" transform="rotate(0,294,230)"/><rect x="290" y="234" width="8" height="8" transform="rotate(0,294,238)"/><rect x="290" y="250" width="8" height="8" transform="rotate(0,294,254)"/><rect x="290" y="258" width="8" height="8" transform="rotate(0,294,262)"/><rect x="290" y="266" width="8" height="8" transform="rotate(0,294,270)"/><rect x="290" y="290" width="8" height="8" transform="rotate(0,294,294)"/><path clip-rule="evenodd" d="M 2 2v 56h 56v -56zM 10 10h 40v 40h -40z" transform="rotate(0,30,30)"/><rect x="18" y="18" width="8" height="8" transform="rotate(0,22,22)"/><rect x="18" y="26" width="8" height="8" transform="rotate(0,22,30)"/><rect x="18" y="34" width="8" height="8" transform="rotate(0,22,38)"/><rect x="26" y="18" width="8" height="8" transform="rotate(0,30,22)"/><rect x="26" y="26" width="8" height="8" transform="rotate(0,30,30)"/><rect x="26" y="34" width="8" height="8" transform="rotate(0,30,38)"/><rect x="34" y="18" width="8" height="8" transform="rotate(0,38,22)"/><rect x="34" y="26" width="8" height="8" transform="rotate(0,38,30)"/><rect x="34" y="34" width="8" height="8" transform="rotate(0,38,38)"/><path clip-rule="evenodd" d="M 242 2v 56h 56v -56zM 250 10h 40v 40h -40z" transform="rotate(90,270,30)"/><rect x="258" y="18" width="8" height="8" transform="rotate(0,262,22)"/><rect x="258" y="26" width="8" height="8" transform="rotate(0,262,30)"/><rect x="258" y="34" width="8" height="8" transform="rotate(0,262,38)"/><rect x="266" y="18" width="8" height="8" transform="rotate(0,270,22)"/><rect x="266" y="26" width="8" height="8" transform="rotate(0,270,30)"/><rect x="266" y="34" width="8" height="8" transform="rotate(0,270,38)"/><rect x="274" y="18" width="8" height="8" transform="rotate(0,278,22)"/><rect x="274" y="26" width="8" height="8" transform="rotate(0,278,30)"/><rect x="274" y="34" width="8" height="8" transform="rotate(0,278,38)"/><path clip-rule="evenodd" d="M 2 242v 56h 56v -56zM 10 250h 40v 40h -40z" transform="rotate(-90,30,270)"/><rect x="18" y="258" width="8" height="8" transform="rotate(0,22,262)"/><rect x="18" y="266" width="8" height="8" transform="rotate(0,22,270)"/><rect x="18" y="274" width="8" height="8" transform="rotate(0,22,278)"/><rect x="26" y="258" width="8" height="8" transform="rotate(0,30,262)"/><rect x="26" y="266" width="8" height="8" transform="rotate(0,30,270)"/><rect x="26" y="274" width="8" height="8" transform="rotate(0,30,278)"/><rect x="34" y="258" width="8" height="8" transform="rotate(0,38,262)"/><rect x="34" y="266" width="8" height="8" transform="rotate(0,38,270)"/><rect x="34" y="274" width="8" height="8" transform="rotate(0,38,278)"/></clipPath></defs><rect x="0" y="0" height="300" width="300" clip-path="url('#clip-path-background-color')" fill="#fff"/><rect x="0" y="0" height="300" width="300" clip-path="url('#clip-path-dot-color')" fill="#000000"/></svg>